HIERARCHY
ROOT Hips
{
  OFFSET 8.68985 56.5748 -157.536
  CHANNELS 6 Xposition Yposition Zposition Zrotation Xrotation Yrotation
  JOINT RightUpLeg
  {
    OFFSET -8.9458 -8.66707 0.101652
    CHANNELS 3 Zrotation Xrotation Yrotation
    JOINT RightLeg
    {
      OFFSET 0 -44.4227 1.3727
      CHANNELS 3 Zrotation Xrotation Yrotation
      JOINT RightFoot
      {
        OFFSET 0.253549 -42.0924 -1.46059
        CHANNELS 3 Zrotation Xrotation Yrotation
        JOINT RightToes
        {
          OFFSET 0.04 -4.41509 8.4991
          CHANNELS 3 Zrotation Xrotation Yrotation
          End Site
          {
            OFFSET -0.08 -0.137448 9.77979
          }
        }
      }
    }
  }
  JOINT Spine
  {
    OFFSET 0 11.8905 0
    CHANNELS 3 Zrotation Xrotation Yrotation
    JOINT Spine1
    {
      OFFSET 0 25.6574 0.127663
      CHANNELS 3 Zrotation Xrotation Yrotation
      JOINT HEad
      {
        OFFSET 0 8.73416 0.011341
        CHANNELS 3 Zrotation Xrotation Yrotation
        End Site
        {
          OFFSET -0.29 12.7742 2.51395
        }
      }
      JOINT LeftShoulder1
      {
        OFFSET 8.99 -0.362252 -0.22
        CHANNELS 3 Zrotation Xrotation Yrotation
        JOINT LeftArm
        {
          OFFSET 10.2827 -0.00338 0.322123
          CHANNELS 3 Zrotation Xrotation Yrotation
          JOINT LeftForeArm
          {
            OFFSET 32.7669 0.099144 -1.42434
            CHANNELS 3 Zrotation Xrotation Yrotation
            JOINT LeftHand
            {
              OFFSET 27.5643 0.085362 1.02216
              CHANNELS 3 Zrotation Xrotation Yrotation
              End Site
              {
                OFFSET 16.7443 -0.6 1.50291
              }
            }
          }
        }
      }
      JOINT RightShoulder
      {
        OFFSET -8.99 -0.362252 -0.22
        CHANNELS 3 Zrotation Xrotation Yrotation
        JOINT RightArm
        {
          OFFSET -10.2827 -0.00338 0.322123
          CHANNELS 3 Zrotation Xrotation Yrotation
          JOINT RightForeArm
          {
            OFFSET -32.8971 0.099144 -1.42434
            CHANNELS 3 Zrotation Xrotation Yrotation
            JOINT RightHand
            {
              OFFSET -27.4921 0.085362 1.02216
              CHANNELS 3 Zrotation Xrotation Yrotation
              End Site
              {
                OFFSET -16.6312 -0.6 1.50291
              }
            }
          }
        }
      }
    }
  }
  JOINT LeftUpLeg
  {
    OFFSET 8.9458 -8.66707 0.101652
    CHANNELS 3 Zrotation Xrotation Yrotation
    JOINT LeftLeg
    {
      OFFSET 0 -44.4227 1.3727
      CHANNELS 3 Zrotation Xrotation Yrotation
      JOINT LeftFoot
      {
        OFFSET -0.253549 -42.0924 -1.46059
        CHANNELS 3 Zrotation Xrotation Yrotation
        JOINT LeftToes
        {
          OFFSET -0.04 -4.41509 8.4991
          CHANNELS 3 Zrotation Xrotation Yrotation
          End Site
          {
            OFFSET 0.08 -0.047448 9.77979
          }
        }
      }
    }
  }
}
MOTION
Frames:	19
Frame Time:	0.0166667
-4.37537 44.0031 -191.718 -8.95371 16.0441 -25.383 -34.4092 -59.3232 -51.0718 -169.782 48.1469 178.569 38.1981 -25.1883 8.64142 0.0462048 0.000533403 0.662642 -6.16569 31.9983 1.86447 -0.00377097 -0.00336704 0.00568001 -9.25257 -6.33275 37.5759 -3.53113e-031 -6.36111e-015 -3.18055e-015 129.732 -43.2828 159.969 -120.675 50.901 -25.6095 7.7693 25.7739 -5.49422 8.40969 1.25629 13.9542 82.3547 -20.6853 75.4875 54.198 59.4105 71.5819 -7.1931 19.4842 2.60012 152.927 -71.379 116.172 118.635 64.4513 -108.659 -21.1019 15.6171 -14.0605 -1.32499e-009 1.56042e-007 -4.82886e-009 
-2.99358 46.5938 -191.179 -8.52046 14.1506 -27.4209 -35.4293 -54.705 -46.874 -168.452 54.7586 -179.47 42.6534 -21.0797 9.86866 0.0462048 0.000533403 0.662642 -6.22115 32.328 1.93844 -0.00377097 -0.00336704 0.00568001 -9.35265 -6.4944 37.7975 6.36111e-015 -3.18055e-015 -3.18055e-015 130.414 -43.8305 160.33 -118.836 51.1108 -27.2604 7.39815 25.4855 -5.4824 7.90444 1.26861 14.4545 82.9943 -20.382 76.1807 54.4896 58.67 70.969 -6.91415 19.7602 2.97903 137.875 -75.4626 101.563 122.264 67.5608 -111.118 -19.1914 11.7344 -12.4113 -1.32499e-009 1.56042e-007 -4.82885e-009 
-1.47906 49.7389 -190.182 -8.03699 12.2937 -29.2702 -34.608 -50.154 -41.4345 -166.722 62.3314 -179.121 48.1483 -17.4951 10.5966 0.0462048 0.000533403 0.662642 -6.16744 31.977 2.08812 -0.00377097 -0.00336704 0.00568001 -9.50846 -6.10873 37.8767 -3.18055e-015 0 6.36111e-015 131.522 -44.6937 160.684 -116.883 51.2457 -28.8165 7.01809 25.2292 -5.37574 7.51182 1.54099 14.8833 83.6458 -20.1182 77.0553 54.7816 57.8413 70.2214 -6.58655 20.0637 3.26788 110.23 -77.8091 73.6403 126.267 72.2104 -113.712 -20.9865 9.15843 -10.0529 -1.32498e-009 1.56042e-007 -4.82885e-009 
0.127857 53.381 -188.72 -7.51189 10.5366 -30.903 -32.9275 -45.4959 -35.3562 -163.769 70.7244 178.792 54.7284 -14.4936 11.0498 0.0462048 0.000533403 0.662642 -5.96963 31.0202 2.33856 -0.00377097 -0.00336704 0.00568001 -9.71903 -5.24915 37.7589 6.36111e-015 3.18055e-015 -0 138.561 -45.5612 164.387 -112.737 50.2084 -28.6724 6.717 25.0025 -5.0684 7.25421 2.0131 15.2084 84.2892 -19.8807 78.0728 54.985 56.9761 69.382 -6.3013 20.2852 3.52488 80.1286 -76.51 43.5047 132.209 77.6679 -118.846 -21.723 6.86067 -7.73254 -1.32499e-009 1.56042e-007 -4.82884e-009 
2.14454 58.4084 -186.167 -6.92719 8.91788 -32.3147 -30.6408 -42.8398 -29.5782 -159.32 78.3364 166.57 37.5034 -12.8147 9.94751 0.0462048 0.000533403 0.662642 -5.58268 29.5088 2.69904 -0.00377097 -0.00336704 0.00568001 -10.0402 -3.95431 37.414 -6.36111e-015 -9.54166e-015 -0 148.614 -45.0742 169.21 -108.854 51.6978 -29.9422 6.73221 22.3058 -0.533759 7.5102 2.55834 15.245 87.0897 -17.6724 82.5827 57.6733 55.118 62.8236 -6.19739 20.587 4.01218 58.6993 -72.0249 23.3207 146.557 83.8468 -133.181 -20.5085 4.45779 -5.46633 -1.32498e-009 1.56042e-007 -4.82885e-009 
4.14072 63.508 -183.353 -6.29143 7.43014 -33.5304 -27.5257 -38.9964 -23.3695 -130.928 86.4173 131.119 20.5007 -13.596 8.54191 0.0462048 0.000533403 0.662642 -5.02852 27.5806 3.17358 -0.00377097 -0.00336704 0.00568001 -10.4685 -2.317 36.8818 -3.18055e-015 0 -6.36111e-015 154.738 -45.0576 172.253 -106.822 52.785 -30.3322 6.6581 20.4543 2.35276 7.84383 3.3074 15.1096 88.6299 -16.3418 85.2989 58.9514 54.0829 59.2248 -6.02835 20.5197 3.97297 48.6119 -66.1134 15.2835 -117.046 86.8619 128.684 -17.3951 2.36261 -3.54893 -1.32498e-009 1.56042e-007 -4.82885e-009 
5.88426 68.24 -180.466 -5.62278 6.06687 -34.591 -26.4054 -32.8513 -16.5665 -11.8103 81.5547 9.66177 32.2308 -11.7465 8.52986 0.0462048 0.000533403 0.662642 -4.40399 25.7522 3.66185 -0.00377097 -0.00336704 0.00568001 -10.9636 -0.824342 36.2893 1.59028e-015 6.36111e-015 -3.18055e-015 158.45 -45.2181 174.281 -105.827 53.574 -30.3999 6.66662 19.6097 3.51487 8.21611 3.87745 14.9318 89.422 -15.5357 86.8854 59.424 53.625 57.4002 -6.17491 20.466 4.09264 44.1373 -59.583 13.5234 -71.4672 82.2128 80.374 -14.7234 0.657936 -2.3109 -1.32498e-009 1.56042e-007 -4.82885e-009 
7.49383 72.8399 -177.339 -4.95701 4.78609 -35.5205 -25.4755 -25.8289 -9.93139 -2.32357 71.3853 -3.17869 43.7748 -10.4451 9.176 0.0462048 0.000533403 0.662642 -3.73358 24.0749 4.17495 -0.00377097 -0.00336704 0.00568001 -11.5343 0.551234 35.6822 5.29669e-031 3.18055e-015 -9.54166e-015 160.501 -45.5868 175.579 -105.487 54.1544 -30.3666 6.55208 18.916 4.24091 8.57825 4.36497 14.6307 89.7716 -14.9879 87.7488 59.4118 53.5667 56.6908 -6.25381 20.2127 3.9422 41.5032 -53.3374 13.8808 -61.8953 77.0125 67.571 -12.0983 -0.605561 -1.48225 -1.32498e-009 1.56042e-007 -4.82885e-009 
8.9657 77.0556 -174.07 -4.31758 3.59299 -36.3505 -25.0305 -18.992 -4.30328 -1.05153 61.4508 -8.57514 54.6258 -8.61362 9.25566 0.0462048 0.000533403 0.662642 -3.03104 22.5508 4.72833 -0.00377097 -0.00336704 0.00568001 -12.1829 1.84589 35.1067 1.59028e-015 0 3.18055e-015 161.334 -46.1454 176.309 -105.611 54.5664 -30.3527 6.57882 18.5556 4.24582 8.87056 4.85209 14.154 89.907 -14.5261 88.1555 59.1178 53.7698 56.6998 -6.49739 19.9928 3.84372 40.0486 -46.986 14.8513 -58.3125 72.7085 58.8237 -19.4639 -1.27388 -1.77947 -1.32498e-009 1.56042e-007 -4.82885e-009 
10.4639 81.4155 -170.434 -3.73602 2.4898 -37.0937 -23.0352 -14.9181 0.291757 -1.80081 55.9367 -13.6221 36.2494 -9.0139 6.75322 0.0462048 0.000533403 0.662642 -2.30647 21.1919 5.31695 -0.00377097 -0.00336704 0.00568001 -12.9041 3.09196 34.603 0 0 -0 161.22 -46.8541 176.583 -106.096 54.827 -30.3818 6.61352 18.1627 4.25075 9.04546 5.39683 13.4877 89.9907 -14.0654 88.2812 58.6891 54.1369 57.1569 -6.64829 19.7163 3.51174 37.6004 -40.3363 15.4816 -51.8408 68.0213 47.5849 -26.9856 -1.37379 -1.60355 -1.32498e-009 1.56042e-007 -4.82885e-009 
11.7085 85.0521 -167.012 -3.23895 1.48646 -37.7485 -21.4091 -11.1885 3.90564 0.149684 50.4024 -17.5602 14.8336 -8.83759 3.16772 0.0462048 0.000533403 0.662642 -1.57249 20.0067 5.92225 -0.00377097 -0.00336704 0.00568001 -13.6837 4.31261 34.2013 1.59028e-015 -6.36111e-015 1.27222e-014 160.353 -47.6649 176.492 -106.861 54.9419 -30.4449 6.7789 17.9129 3.98547 9.0893 6.0253 12.6455 90.1184 -13.5774 88.2373 58.2262 54.5895 57.8735 -6.85988 19.5239 3.15204 35.268 -34.1437 16.2376 -46.1302 63.3579 37.565 -35.1473 -1.00781 -1.38609 -1.32498e-009 1.56042e-007 -4.82885e-009 
12.681 87.6895 -164.012 -2.83618 0.519566 -38.3162 -23.33 -6.64029 6.71291 4.14537 44.3404 -16.607 38.6737 -5.81605 4.705 0.0462048 0.000533403 0.662642 -0.900604 19.062 6.52455 -0.00377097 -0.00336704 0.00568001 -14.5139 5.52701 33.9242 -1.59028e-015 -1.59028e-015 -6.36111e-015 158.794 -48.5194 176.14 -107.832 54.8791 -30.4873 7.17963 17.4468 3.93306 9.02367 6.82422 11.626 90.3588 -13.0596 88.1364 57.7809 55.0437 58.6998 -7.15445 19.3155 2.52364 33.3023 -28.7933 17.0099 -41.7863 59.1779 29.6228 -44.0246 -0.474665 -1.20415 -1.32497e-009 1.56042e-007 -4.82885e-009 
13.5442 90.8028 -161.178 -2.53657 -0.371886 -38.7751 -22.7297 -5.36159 7.47498 8.43534 40.5983 -16.1451 28.1441 -3.79373 2.06673 0.0462048 0.000533403 0.662642 -0.298319 18.3469 7.09286 -0.00377097 -0.00336704 0.00568001 -15.3736 6.73232 33.7703 -1.59028e-015 0 -3.18055e-015 156.765 -49.3892 175.625 -108.911 54.7198 -30.4775 7.25507 17.4768 3.57571 8.88808 7.62717 10.5499 90.676 -12.5993 87.887 57.3833 55.4884 59.5389 -7.13907 19.3086 2.04875 30.586 -25.0349 17.8694 -38.8123 54.9296 23.8585 -34.5582 -0.344823 -0.534808 -1.32497e-009 1.56042e-007 -4.82885e-009 
14.1928 93.2583 -158.803 -2.33274 -1.13709 -39.1137 -22.4076 -5.04745 7.07448 13.1301 38.007 -14.4402 26.7129 -2.2054 1.30508 0.0462048 0.000533403 0.662642 0.215244 17.8405 7.61441 -0.00377097 -0.00336704 0.00568001 -16.2391 7.91291 33.7312 3.18055e-015 1.59028e-015 -6.36111e-015 154.475 -50.2476 175.05 -109.96 54.5275 -30.414 7.453 17.4014 3.36531 8.72089 8.39224 9.50143 91.0268 -12.2445 87.5166 57.0273 55.9084 60.3388 -7.15907 19.2733 1.48378 27.9031 -21.9631 18.2078 -33.773 51.3659 18.0733 -27.4241 -0.480525 -0.420128 -1.32498e-009 1.56042e-007 -4.82885e-009 
14.6927 95.2393 -156.773 -2.20599 -1.72397 -39.3194 -21.418 -6.63522 5.35872 16.2098 38.3196 -12.8356 21.5031 -1.50534 0.669786 0.0462048 0.000533403 0.662642 0.614745 17.5181 8.08308 -0.00377097 -0.00336704 0.00568001 -17.0909 9.0494 33.7935 -1.59028e-015 0 -6.36111e-015 152.111 -51.0724 174.503 -110.885 54.3658 -30.2972 7.42291 17.6363 2.94412 8.55174 9.07424 8.54892 91.3676 -12.0251 87.0421 56.6965 56.3049 61.0703 -6.97884 19.3499 1.08593 25.0871 -19.6156 17.9048 -28.1807 47.9279 13.7581 -21.7114 -0.804339 -0.433448 -1.32498e-009 1.56042e-007 -4.82885e-009 
15.1288 96.7004 -155.064 -2.11319 -2.22697 -39.4418 -20.2681 -9.14516 2.69367 17.6616 40.2033 -11.1742 19.1431 -1.17005 0.415605 0.0462048 0.000533403 0.662642 0.883535 17.3421 8.48893 -0.00377097 -0.00336704 0.00568001 -17.9138 10.1204 33.9407 -7.95139e-016 1.59028e-015 -0 149.84 -51.8417 174.058 -111.603 54.2718 -30.1504 7.43246 17.8127 2.55866 8.40854 9.62907 7.74897 91.6545 -11.9608 86.4856 56.3663 56.6696 61.7201 -6.84003 19.3952 0.740931 22.2863 -18.6059 16.3194 -23.7259 45.0774 12.735 -16.9079 -1.29235 -0.504585 -1.32498e-009 1.56042e-007 -4.82885e-009 
15.6228 97.7954 -153.546 -2.01042 -2.75623 -39.5382 -18.8763 -12.234 -0.722061 17.3656 43.0756 -9.22027 15.9811 -0.850827 0.185804 0.0462048 0.000533403 0.662642 1.01764 17.2739 8.82749 -0.00377097 -0.00336704 0.00568001 -18.6978 11.1045 34.1539 -7.95139e-016 0 -9.54166e-015 147.804 -52.5311 173.763 -112.07 54.2614 -30.0082 7.27981 18.1685 1.99431 8.31555 10.0196 7.13751 91.8506 -12.0549 85.8803 56.0206 56.992 62.2858 -6.62032 19.502 0.605434 19.3948 -18.252 13.8244 -19.9527 42.6493 13.7571 -12.7314 -1.72631 -0.509965 -1.32498e-009 1.56042e-007 -4.82884e-009 
16.1643 98.5684 -152.238 -1.85014 -3.30075 -39.6416 -17.5024 -15.1755 -4.79258 12.8922 46.8558 -4.45721 14.1917 -0.252139 -0.00655378 0.0462048 0.000533403 0.662642 0.985102 17.2809 9.14446 -0.00377097 -0.00336704 0.00568001 -19.44 11.9836 34.4138 -3.18055e-015 1.59028e-015 -3.18055e-015 146.108 -53.1169 173.644 -112.265 54.3247 -29.9151 7.13499 18.471 1.41834 8.28206 10.2241 6.72423 91.9365 -12.2918 85.2756 55.6543 57.2518 62.7685 -6.46844 19.5896 0.594196 16.7643 -19.109 10.9671 -14.3133 39.5409 15.0565 -0.948637 -2.7292 -0.492357 -1.32498e-009 1.56042e-007 -4.82885e-009 
16.8877 98.5014 -150.75 -1.61554 -3.86896 -39.7708 -17.0288 -17.4204 -8.57838 5.86848 50.5586 2.26939 13.5386 0.205635 -0.0283386 0.0462048 0.000533403 0.662642 0.80912 17.3373 9.46655 -0.00377097 -0.00336704 0.00568001 -20.1522 12.7512 34.7037 7.95139e-016 0 -0 144.786 -53.5787 173.667 -112.2 54.4798 -29.8868 6.85362 19.0286 0.646274 8.36795 10.1762 6.54021 91.8118 -12.7106 84.6738 55.2619 57.4786 63.1327 -6.18313 19.8665 0.823084 16.559 -19.9636 7.80066 -7.62353 36.4168 15.098 -12.4891 -2.90026 -0.24347 -1.32498e-009 1.56042e-007 -4.82885e-009 
